<svg id="Layer_1" data-name="Layer 1" xmlns="http://www.w3.org/2000/svg" xmlns:xlink="http://www.w3.org/1999/xlink" viewBox="0 0 5.92 28.31"><defs><style>.cls-1{fill:none;}.cls-2{fill:#6d6e70;}.cls-3{fill:#fff;}.cls-3,.cls-4{stroke:#231f20;stroke-width:0.25px;}.cls-4{fill:url(#NIV_HAUT);}</style><pattern id="NIV_HAUT" data-name="NIV HAUT" width="148.11" height="148.11" patternTransform="translate(26.26 242.31) scale(1 1.04)" patternUnits="userSpaceOnUse" viewBox="0 0 148.11 148.11"><rect class="cls-1" width="148.11" height="148.11"/><polygon class="cls-1" points="148.11 99.75 99.75 148.11 105.08 148.11 148.11 105.08 148.11 99.75"/><polygon class="cls-1" points="148.11 82.72 82.72 148.11 88.04 148.11 148.11 88.04 148.11 82.72"/><polygon class="cls-1" points="148.11 54.32 54.32 148.11 59.64 148.11 148.11 59.64 148.11 54.32"/><polygon class="cls-1" points="148.11 48.64 48.64 148.11 53.96 148.11 148.11 53.96 148.11 48.64"/><polygon class="cls-1" points="148.11 71.36 71.36 148.11 76.68 148.11 148.11 76.68 148.11 71.36"/><polygon class="cls-1" points="148.11 77.04 77.04 148.11 82.36 148.11 148.11 82.36 148.11 77.04"/><polygon class="cls-1" points="148.11 65.68 65.68 148.11 71 148.11 148.11 71 148.11 65.68"/><polygon class="cls-1" points="3.48 0 3.57 0.09 0 3.66 0 8.98 8.98 0 3.48 0"/><polygon class="cls-1" points="148.11 31.6 31.6 148.11 36.93 148.11 148.11 36.93 148.11 31.6"/><polygon class="cls-1" points="148.11 42.96 42.96 148.11 48.28 148.11 148.11 48.28 148.11 42.96"/><polygon class="cls-1" points="0 0 0 3.3 3.3 0 0 0"/><polygon class="cls-1" points="148.11 37.28 37.28 148.11 42.6 148.11 148.11 42.6 148.11 37.28"/><polygon class="cls-1" points="148.11 88.39 88.39 148.11 93.72 148.11 148.11 93.72 148.11 88.39"/><polygon class="cls-1" points="148.11 116.79 116.79 148.11 122.11 148.11 148.11 122.11 148.11 116.79"/><polygon class="cls-1" points="71.63 0 71.72 0.09 0 71.81 0 77.13 77.13 0 71.63 0"/><polygon class="cls-1" points="148.11 122.47 122.47 148.11 127.79 148.11 148.11 127.79 148.11 122.47"/><polygon class="cls-1" points="94.35 0 94.44 0.09 0 94.53 0 99.85 99.85 0 94.35 0"/><polygon class="cls-1" points="100.03 0 100.12 0.09 0 100.21 0 105.53 105.53 0 100.03 0"/><polygon class="cls-1" points="148.11 111.11 111.11 148.11 116.44 148.11 148.11 116.44 148.11 111.11"/><polygon class="cls-1" points="148.11 94.07 94.07 148.11 99.4 148.11 148.11 99.4 148.11 94.07"/><polygon class="cls-1" points="148.11 25.92 25.92 148.11 31.25 148.11 148.11 31.25 148.11 25.92"/><polygon class="cls-1" points="148.11 105.43 105.43 148.11 110.76 148.11 148.11 110.76 148.11 105.43"/><polygon class="cls-1" points="105.71 0 105.8 0.09 0 105.89 0 111.21 111.21 0 105.71 0"/><polygon class="cls-1" points="148.11 0 145.46 0 145.55 0.09 0 145.64 0 148.11 2.85 148.11 148.11 2.85 148.11 0"/><polygon class="cls-1" points="128.43 0 128.51 0.09 0 128.6 0 133.93 133.93 0 128.43 0"/><polygon class="cls-1" points="48.91 0 49 0.09 0 49.09 0 54.42 54.42 0 48.91 0"/><polygon class="cls-1" points="54.59 0 54.68 0.09 0 54.77 0 60.1 60.1 0 54.59 0"/><polygon class="cls-1" points="43.24 0 43.33 0.09 0 43.41 0 48.74 48.74 0 43.24 0"/><polygon class="cls-1" points="134.1 0 134.19 0.09 0 134.28 0 139.6 139.6 0 134.1 0"/><polygon class="cls-1" points="111.39 0 111.48 0.09 0 111.56 0 116.89 116.89 0 111.39 0"/><polygon class="cls-1" points="9.16 0 9.25 0.09 0 9.34 0 14.66 14.66 0 9.16 0"/><polygon class="cls-1" points="65.95 0 66.04 0.09 0 66.13 0 71.45 71.45 0 65.95 0"/><polygon class="cls-1" points="60.27 0 60.36 0.09 0 60.45 0 65.78 65.78 0 60.27 0"/><polygon class="cls-1" points="122.75 0 122.83 0.09 0 122.92 0 128.25 128.25 0 122.75 0"/><polygon class="cls-1" points="139.78 0 139.87 0.09 0 139.96 0 145.28 145.28 0 139.78 0"/><polygon class="cls-1" points="20.52 0 20.61 0.09 0 20.7 0 26.02 26.02 0 20.52 0"/><polygon class="cls-1" points="148.11 14.56 14.56 148.11 19.89 148.11 148.11 19.89 148.11 14.56"/><polygon class="cls-1" points="148.11 8.88 8.88 148.11 14.21 148.11 148.11 14.21 148.11 8.88"/><polygon class="cls-1" points="14.84 0 14.93 0.09 0 15.02 0 20.34 20.34 0 14.84 0"/><polygon class="cls-1" points="37.56 0 37.65 0.09 0 37.73 0 43.06 43.06 0 37.56 0"/><polygon class="cls-1" points="148.11 20.24 20.24 148.11 25.57 148.11 148.11 25.57 148.11 20.24"/><polygon class="cls-1" points="88.67 0 88.76 0.09 0 88.85 0 94.17 94.17 0 88.67 0"/><polygon class="cls-1" points="31.88 0 31.97 0.09 0 32.05 0 37.38 37.38 0 31.88 0"/><polygon class="cls-1" points="148.11 3.21 3.21 148.11 8.53 148.11 148.11 8.53 148.11 3.21"/><polygon class="cls-1" points="26.2 0 26.29 0.09 0 26.38 0 31.7 31.7 0 26.2 0"/><polygon class="cls-1" points="148.11 60 60 148.11 65.32 148.11 148.11 65.32 148.11 60"/><polygon class="cls-1" points="148.11 133.83 133.83 148.11 139.15 148.11 148.11 139.15 148.11 133.83"/><polygon class="cls-1" points="148.11 139.51 139.51 148.11 144.83 148.11 148.11 144.83 148.11 139.51"/><polygon class="cls-1" points="117.07 0 117.16 0.09 0 117.24 0 122.57 122.57 0 117.07 0"/><polygon class="cls-1" points="77.31 0 77.4 0.09 0 77.49 0 82.81 82.81 0 77.31 0"/><polygon class="cls-1" points="82.99 0 83.08 0.09 0 83.17 0 88.49 88.49 0 82.99 0"/><polygon class="cls-1" points="145.19 148.11 148.11 148.11 148.11 145.19 145.19 148.11"/><polygon class="cls-1" points="148.11 128.15 128.15 148.11 133.47 148.11 148.11 133.47 148.11 128.15"/><polygon class="cls-2" points="3.48 0 3.3 0 0 3.3 0 3.66 3.57 0.09 3.48 0"/><polygon class="cls-2" points="9.16 0 8.98 0 0 8.98 0 9.34 9.25 0.09 9.16 0"/><polygon class="cls-2" points="14.84 0 14.66 0 0 14.66 0 15.02 14.93 0.09 14.84 0"/><polygon class="cls-2" points="20.52 0 20.34 0 0 20.34 0 20.7 20.61 0.09 20.52 0"/><polygon class="cls-2" points="26.2 0 26.02 0 0 26.02 0 26.38 26.29 0.09 26.2 0"/><polygon class="cls-2" points="31.88 0 31.7 0 0 31.7 0 32.05 31.97 0.09 31.88 0"/><polygon class="cls-2" points="37.56 0 37.38 0 0 37.38 0 37.73 37.65 0.09 37.56 0"/><polygon class="cls-2" points="43.24 0 43.06 0 0 43.06 0 43.41 43.33 0.09 43.24 0"/><polygon class="cls-2" points="48.91 0 48.74 0 0 48.74 0 49.09 49 0.09 48.91 0"/><polygon class="cls-2" points="54.59 0 54.42 0 0 54.42 0 54.77 54.68 0.09 54.59 0"/><polygon class="cls-2" points="60.27 0 60.1 0 0 60.1 0 60.45 60.36 0.09 60.27 0"/><polygon class="cls-2" points="65.95 0 65.78 0 0 65.78 0 66.13 66.04 0.09 65.95 0"/><polygon class="cls-2" points="71.63 0 71.45 0 0 71.45 0 71.81 71.72 0.09 71.63 0"/><polygon class="cls-2" points="77.31 0 77.13 0 0 77.13 0 77.49 77.4 0.09 77.31 0"/><polygon class="cls-2" points="82.99 0 82.81 0 0 82.81 0 83.17 83.08 0.09 82.99 0"/><polygon class="cls-2" points="88.67 0 88.49 0 0 88.49 0 88.85 88.76 0.09 88.67 0"/><polygon class="cls-2" points="94.35 0 94.17 0 0 94.17 0 94.53 94.44 0.09 94.35 0"/><polygon class="cls-2" points="100.03 0 99.85 0 0 99.85 0 100.21 100.12 0.09 100.03 0"/><polygon class="cls-2" points="105.71 0 105.53 0 0 105.53 0 105.89 105.8 0.09 105.71 0"/><polygon class="cls-2" points="111.39 0 111.21 0 0 111.21 0 111.56 111.48 0.09 111.39 0"/><polygon class="cls-2" points="117.07 0 116.89 0 0 116.89 0 117.24 117.16 0.09 117.07 0"/><polygon class="cls-2" points="122.75 0 122.57 0 0 122.57 0 122.92 122.83 0.09 122.75 0"/><polygon class="cls-2" points="128.43 0 128.25 0 0 128.25 0 128.6 128.51 0.09 128.43 0"/><polygon class="cls-2" points="134.1 0 133.93 0 0 133.93 0 134.28 134.19 0.09 134.1 0"/><polygon class="cls-2" points="139.78 0 139.6 0 0 139.6 0 139.96 139.87 0.09 139.78 0"/><polygon class="cls-2" points="145.46 0 145.28 0 0 145.28 0 145.64 145.55 0.09 145.46 0"/><polygon class="cls-2" points="148.11 2.85 2.85 148.11 3.21 148.11 148.11 3.21 148.11 2.85"/><polygon class="cls-2" points="148.11 8.53 8.53 148.11 8.88 148.11 148.11 8.88 148.11 8.53"/><polygon class="cls-2" points="148.11 14.21 14.21 148.11 14.56 148.11 148.11 14.56 148.11 14.21"/><polygon class="cls-2" points="148.11 19.89 19.89 148.11 20.24 148.11 148.11 20.24 148.11 19.89"/><polygon class="cls-2" points="148.11 25.57 25.57 148.11 25.92 148.11 148.11 25.92 148.11 25.57"/><polygon class="cls-2" points="148.11 31.25 31.25 148.11 31.6 148.11 148.11 31.6 148.11 31.25"/><polygon class="cls-2" points="148.11 36.93 36.93 148.11 37.28 148.11 148.11 37.28 148.11 36.93"/><polygon class="cls-2" points="148.11 42.6 42.6 148.11 42.96 148.11 148.11 42.96 148.11 42.6"/><polygon class="cls-2" points="148.11 48.28 48.28 148.11 48.64 148.11 148.11 48.64 148.11 48.28"/><polygon class="cls-2" points="148.11 53.96 53.96 148.11 54.32 148.11 148.11 54.32 148.11 53.96"/><polygon class="cls-2" points="148.11 59.64 59.64 148.11 60 148.11 148.11 60 148.11 59.64"/><polygon class="cls-2" points="148.11 65.32 65.32 148.11 65.68 148.11 148.11 65.68 148.11 65.32"/><polygon class="cls-2" points="148.11 71 71 148.11 71.36 148.11 148.11 71.36 148.11 71"/><polygon class="cls-2" points="148.11 76.68 76.68 148.11 77.04 148.11 148.11 77.04 148.11 76.68"/><polygon class="cls-2" points="148.11 82.36 82.36 148.11 82.72 148.11 148.11 82.72 148.11 82.36"/><polygon class="cls-2" points="148.11 88.04 88.04 148.11 88.39 148.11 148.11 88.39 148.11 88.04"/><polygon class="cls-2" points="148.11 93.72 93.72 148.11 94.07 148.11 148.11 94.07 148.11 93.72"/><polygon class="cls-2" points="148.11 99.4 99.4 148.11 99.75 148.11 148.11 99.75 148.11 99.4"/><polygon class="cls-2" points="148.11 105.08 105.08 148.11 105.43 148.11 148.11 105.43 148.11 105.08"/><polygon class="cls-2" points="148.11 110.76 110.76 148.11 111.11 148.11 148.11 111.11 148.11 110.76"/><polygon class="cls-2" points="148.11 116.44 116.44 148.11 116.79 148.11 148.11 116.79 148.11 116.44"/><polygon class="cls-2" points="148.11 122.11 122.11 148.11 122.47 148.11 148.11 122.47 148.11 122.11"/><polygon class="cls-2" points="148.11 127.79 127.79 148.11 128.15 148.11 148.11 128.15 148.11 127.79"/><polygon class="cls-2" points="148.11 133.47 133.47 148.11 133.83 148.11 148.11 133.83 148.11 133.47"/><polygon class="cls-2" points="148.11 139.15 139.15 148.11 139.51 148.11 148.11 139.51 148.11 139.15"/><polygon class="cls-2" points="148.11 144.83 144.83 148.11 145.19 148.11 148.11 145.19 148.11 144.83"/></pattern></defs><rect class="cls-3" x="0.13" y="0.13" width="5.67" height="28.06"/><rect class="cls-4" x="0.13" y="0.13" width="5.67" height="28.06"/></svg>