<svg id="Calque_1" data-name="Calque 1" xmlns="http://www.w3.org/2000/svg" viewBox="0 0 612 792"><defs><style>.cls-1{fill:none;stroke:#231f20;stroke-width:0.25px;}</style></defs><line class="cls-1" x1="164.27" y1="652.56" x2="164.27" y2="169.23"/><line class="cls-1" x1="143.01" y1="652.56" x2="143.01" y2="169.23"/><line class="cls-1" x1="185.53" y1="652.56" x2="185.53" y2="169.23"/><line class="cls-1" x1="143.01" y1="652.56" x2="185.53" y2="652.56"/><line class="cls-1" x1="143.01" y1="624.21" x2="185.53" y2="624.21"/><line class="cls-1" x1="447.73" y1="622.77" x2="447.73" y2="167.79"/><line class="cls-1" x1="426.47" y1="622.77" x2="426.47" y2="167.79"/><line class="cls-1" x1="468.99" y1="622.77" x2="468.99" y2="167.79"/><line class="cls-1" x1="143.01" y1="622.77" x2="185.53" y2="622.77"/><line class="cls-1" x1="426.47" y1="622.77" x2="468.99" y2="622.77"/><line class="cls-1" x1="143.01" y1="169.23" x2="185.53" y2="169.23"/><line class="cls-1" x1="426.47" y1="167.79" x2="468.99" y2="167.79"/><line class="cls-1" x1="143.01" y1="509.39" x2="185.53" y2="509.39"/><line class="cls-1" x1="143.01" y1="396" x2="185.53" y2="396"/><line class="cls-1" x1="143.01" y1="282.61" x2="185.53" y2="282.61"/><line class="cls-1" x1="426.47" y1="509.39" x2="468.99" y2="509.39"/><line class="cls-1" x1="426.47" y1="396" x2="468.99" y2="396"/><line class="cls-1" x1="426.47" y1="282.61" x2="468.99" y2="282.61"/><line class="cls-1" x1="162.47" y1="594.43" x2="166.07" y2="594.43"/><line class="cls-1" x1="162.47" y1="566.08" x2="166.07" y2="566.08"/><line class="cls-1" x1="162.47" y1="537.73" x2="166.07" y2="537.73"/><line class="cls-1" x1="162.47" y1="481.04" x2="166.07" y2="481.04"/><line class="cls-1" x1="162.47" y1="452.69" x2="166.07" y2="452.69"/><line class="cls-1" x1="162.47" y1="424.35" x2="166.07" y2="424.35"/><line class="cls-1" x1="162.47" y1="367.65" x2="166.07" y2="367.65"/><line class="cls-1" x1="162.47" y1="339.31" x2="166.07" y2="339.31"/><line class="cls-1" x1="162.47" y1="310.96" x2="166.07" y2="310.96"/><line class="cls-1" x1="162.47" y1="254.27" x2="166.07" y2="254.27"/><line class="cls-1" x1="162.47" y1="225.92" x2="166.07" y2="225.92"/><line class="cls-1" x1="162.47" y1="197.57" x2="166.07" y2="197.57"/><line class="cls-1" x1="445.93" y1="594.43" x2="449.53" y2="594.43"/><line class="cls-1" x1="445.93" y1="566.08" x2="449.53" y2="566.08"/><line class="cls-1" x1="445.93" y1="537.73" x2="449.53" y2="537.73"/><line class="cls-1" x1="445.93" y1="481.04" x2="449.53" y2="481.04"/><line class="cls-1" x1="445.93" y1="452.69" x2="449.53" y2="452.69"/><line class="cls-1" x1="445.93" y1="424.35" x2="449.53" y2="424.35"/><line class="cls-1" x1="445.93" y1="367.65" x2="449.53" y2="367.65"/><line class="cls-1" x1="445.93" y1="339.31" x2="449.53" y2="339.31"/><line class="cls-1" x1="445.93" y1="310.96" x2="449.53" y2="310.96"/><line class="cls-1" x1="445.93" y1="254.27" x2="449.53" y2="254.27"/><line class="cls-1" x1="445.93" y1="225.92" x2="449.53" y2="225.92"/><line class="cls-1" x1="445.93" y1="197.57" x2="449.53" y2="197.57"/><line class="cls-1" x1="426.47" y1="169.23" x2="468.99" y2="169.23"/></svg>